<svg xmlns="http://www.w3.org/2000/svg" xmlns:svg="http://www.w3.org/2000/svg" id="svg8" width="281.877" height="88.166" version="1.1" viewBox="0 0 74.58 23.327"><defs id="defs2"><marker style="overflow:visible" id="marker6385" orient="auto" refX="0" refY="0"><path style="fill:#fc0;fill-opacity:1;fill-rule:evenodd;stroke:#fc0;stroke-width:.625;stroke-linejoin:round;stroke-opacity:1" id="path6383" d="M 8.7185878,4.0337352 -2.2072895,0.01601326 8.7185884,-4.0017078 c -1.7454984,2.3720609 -1.7354408,5.6174519 -6e-7,8.035443 z" transform="scale(0.6)"/></marker><marker id="marker6243" orient="auto" refX="0" refY="0" style="overflow:visible"><path id="path6241" d="M 8.7185878,4.0337352 -2.2072895,0.01601326 8.7185884,-4.0017078 c -1.7454984,2.3720609 -1.7354408,5.6174519 -6e-7,8.035443 z" transform="scale(0.6)" style="fill:#fc0;fill-opacity:1;fill-rule:evenodd;stroke:#fc0;stroke-width:.625;stroke-linejoin:round;stroke-opacity:1"/></marker><marker id="Arrow1Mstart" orient="auto" refX="0" refY="0" style="overflow:visible"><path id="path4577" d="M 0,0 5,-5 -12.5,0 5,5 Z" transform="matrix(0.4,0,0,0.4,4,0)" style="fill:#fc0;fill-opacity:1;fill-rule:evenodd;stroke:#fc0;stroke-width:1.00000003pt;stroke-opacity:1"/></marker><marker id="Arrow1Mend" orient="auto" refX="0" refY="0" style="overflow:visible"><path id="path4580" d="M 0,0 5,-5 -12.5,0 5,5 Z" transform="matrix(-0.4,0,0,-0.4,-4,0)" style="fill:#fc0;fill-opacity:1;fill-rule:evenodd;stroke:#fc0;stroke-width:1.00000003pt;stroke-opacity:1"/></marker><marker id="marker5901" orient="auto" refX="0" refY="0" style="overflow:visible"><path id="path5899" d="M 8.7185878,4.0337352 -2.2072895,0.01601326 8.7185884,-4.0017078 c -1.7454984,2.3720609 -1.7354408,5.6174519 -6e-7,8.035443 z" transform="scale(-0.6)" style="fill:#0069de;fill-opacity:1;fill-rule:evenodd;stroke:#0069de;stroke-width:.625;stroke-linejoin:round;stroke-opacity:1"/></marker><marker id="marker5849" orient="auto" refX="0" refY="0" style="overflow:visible"><path id="path5847" d="M 8.7185878,4.0337352 -2.2072895,0.01601326 8.7185884,-4.0017078 c -1.7454984,2.3720609 -1.7354408,5.6174519 -6e-7,8.035443 z" transform="scale(-0.6)" style="fill:#0069de;fill-opacity:1;fill-rule:evenodd;stroke:#0069de;stroke-width:.625;stroke-linejoin:round;stroke-opacity:1"/></marker><marker id="marker5809" orient="auto" refX="0" refY="0" style="overflow:visible"><path id="path5807" d="M 8.7185878,4.0337352 -2.2072895,0.01601326 8.7185884,-4.0017078 c -1.7454984,2.3720609 -1.7354408,5.6174519 -6e-7,8.035443 z" transform="scale(-0.6)" style="fill:#0069de;fill-opacity:1;fill-rule:evenodd;stroke:#0069de;stroke-width:.625;stroke-linejoin:round;stroke-opacity:1"/></marker><marker id="Arrow2Mend" orient="auto" refX="0" refY="0" style="overflow:visible"><path id="path4598" d="M 8.7185878,4.0337352 -2.2072895,0.01601326 8.7185884,-4.0017078 c -1.7454984,2.3720609 -1.7354408,5.6174519 -6e-7,8.035443 z" transform="scale(-0.6)" style="fill:#0069de;fill-opacity:1;fill-rule:evenodd;stroke:#0069de;stroke-width:.625;stroke-linejoin:round;stroke-opacity:1"/></marker><marker id="Arrow2Lstart" orient="auto" refX="0" refY="0" style="overflow:visible"><path id="path4589" d="M 8.7185878,4.0337352 -2.2072895,0.01601326 8.7185884,-4.0017078 c -1.7454984,2.3720609 -1.7354408,5.6174519 -6e-7,8.035443 z" transform="matrix(1.1,0,0,1.1,1.1,0)" style="fill:#0069de;fill-opacity:1;fill-rule:evenodd;stroke:#0069de;stroke-width:.625;stroke-linejoin:round;stroke-opacity:1"/></marker><marker id="Arrow1Lstart" orient="auto" refX="0" refY="0" style="overflow:visible"><path id="path4571" d="M 0,0 5,-5 -12.5,0 5,5 Z" transform="matrix(0.8,0,0,0.8,10,0)" style="fill-rule:evenodd;stroke:#000;stroke-width:1.00000003pt"/></marker></defs><metadata id="metadata5"/><g id="layer1" transform="translate(0.0336687,1.1377017)"><rect style="fill:#e8ae10;fill-opacity:1;stroke:#e8ae10;stroke-width:.15000008;stroke-miterlimit:4;stroke-dasharray:none;stroke-opacity:1" id="rect7032-7-6-3" width="2.646" height="2.646" x="52.163" y="5.323"/><rect style="fill:#e8ae10;fill-opacity:1;stroke:#e8ae10;stroke-width:.15000008;stroke-miterlimit:4;stroke-dasharray:none;stroke-opacity:1" id="rect7032-7-6-3-2" width="2.646" height="2.646" x="54.809" y=".031"/><rect style="fill:#e8ae10;fill-opacity:1;stroke:#e8ae10;stroke-width:.15000008;stroke-miterlimit:4;stroke-dasharray:none;stroke-opacity:1" id="rect7032-7-6-3-2-2" width="2.646" height="2.646" x="63.54" y="4.529"/><rect style="fill:#e8ae10;fill-opacity:1;stroke:#e8ae10;stroke-width:.15000008;stroke-miterlimit:4;stroke-dasharray:none;stroke-opacity:1" id="rect7032-7-6-3-2-2-7" width="2.646" height="2.646" x="57.455" y="4"/><rect style="fill:#e8ae10;fill-opacity:1;stroke:#e8ae10;stroke-width:.15000008;stroke-miterlimit:4;stroke-dasharray:none;stroke-opacity:1" id="rect7032-7-6-3-2-2-7-5" width="2.646" height="2.646" x="60.101" y=".031"/><path style="fill:none;stroke:#e8ae10;stroke-width:.26458332px;stroke-linecap:butt;stroke-linejoin:miter;stroke-opacity:1" id="path7294" d="m 56.131953,1.3539684 -2.64583,5.291666 5.29166,-1.322916 6.08541,0.529166 -3.43958,-4.497916 -2.64583,3.96875 z"/><path style="fill:#f6a30e;fill-opacity:1;stroke:#e8ae10;stroke-width:.26458332px;stroke-linecap:butt;stroke-linejoin:miter;stroke-opacity:1" id="path7296" d="m 56.131953,1.3539684 h 5.29166"/><rect style="fill:#1488c6;fill-opacity:1;stroke:#1488c6;stroke-width:.15000008;stroke-miterlimit:4;stroke-dasharray:none;stroke-opacity:1" id="rect7032-7-6-3-8" width="2.646" height="2.646" x="15.442" y="5.269"/><rect style="fill:#1488c6;fill-opacity:1;stroke:#1488c6;stroke-width:.15000008;stroke-miterlimit:4;stroke-dasharray:none;stroke-opacity:1" id="rect7032-7-6-3-8-8" width="2.646" height="2.646" x="20.734" y="3.946"/><rect style="fill:#1488c6;fill-opacity:1;stroke:#1488c6;stroke-width:.15000008;stroke-miterlimit:4;stroke-dasharray:none;stroke-opacity:1" id="rect7032-7-6-3-8-8-6" width="2.646" height="2.646" x="24.703" y="6.592"/><rect style="fill:#1488c6;fill-opacity:1;stroke:#1488c6;stroke-width:.15000008;stroke-miterlimit:4;stroke-dasharray:none;stroke-opacity:1" id="rect7032-7-6-3-8-8-6-1" width="2.646" height="2.646" x="29.73" y="5.269"/><rect style="fill:#1488c6;fill-opacity:1;stroke:#1488c6;stroke-width:.15000008;stroke-miterlimit:4;stroke-dasharray:none;stroke-opacity:1" id="rect7032-7-6-3-8-8-6-1-8" width="2.646" height="2.646" x="33.169" y="1.036"/><rect style="fill:#1488c6;fill-opacity:1;stroke:#1488c6;stroke-width:.15000008;stroke-miterlimit:4;stroke-dasharray:none;stroke-opacity:1" id="rect7032-7-6-3-8-8-6-1-8-9" width="2.646" height="2.646" x="26.29" y="1.565"/><rect style="fill:#1488c6;fill-opacity:1;stroke:#1488c6;stroke-width:.15000008;stroke-miterlimit:4;stroke-dasharray:none;stroke-opacity:1" id="rect7032-7-6-3-8-8-6-1-8-9-6" width="2.646" height="2.646" x="18.088" y="-.022"/><path style="fill:none;stroke:#1488c6;stroke-width:.26458332px;stroke-linecap:butt;stroke-linejoin:miter;stroke-opacity:1" id="path7403" d="m 16.765102,6.5922491 2.64583,-5.2916674 8.20209,1.5875 6.87916,-0.529167 -3.43958,4.2333334 -3.43958,-3.7041664 -1.5875,4.9325904 -3.96875,-2.55134 5.55625,-2.3812504 -8.20209,-1.5875 2.64584,3.9687504 z"/><rect style="fill:#e8ae10;fill-opacity:1;stroke:#e8ae10;stroke-width:.15000008;stroke-miterlimit:4;stroke-dasharray:none;stroke-opacity:1" id="rect7032-7-6-3-2-2-6" width="2.646" height="2.646" x="66.186" y="-.763"/><rect style="fill:#e8ae10;fill-opacity:1;stroke:#e8ae10;stroke-width:.15000008;stroke-miterlimit:4;stroke-dasharray:none;stroke-opacity:1" id="rect7032-7-6-3-2-2-6-2" width="2.646" height="2.646" x="71.478" y=".56"/><rect style="fill:#e8ae10;fill-opacity:1;stroke:#e8ae10;stroke-width:.15000008;stroke-miterlimit:4;stroke-dasharray:none;stroke-opacity:1" id="rect7032-7-6-3-2-2-6-2-9" width="2.646" height="2.646" x="68.303" y="4.529"/><path style="fill:none;stroke:#e8ae10;stroke-width:.26458332px;stroke-linecap:butt;stroke-linejoin:miter;stroke-opacity:1" id="path7450" d="m 61.423603,1.3539684 6.08542,-0.79375002 5.29167,1.32291702 -3.175,3.96875 -2.11667,-5.29166702 -2.64583,5.29166702 z"/><text style="font-style:normal;font-weight:400;font-size:10.58333302px;line-height:1.25;font-family:sans-serif;letter-spacing:0;word-spacing:0;fill:#1488c6;fill-opacity:1;stroke:none;stroke-width:.26458332" id="text3682" x="-.007" y="21.406" xml:space="preserve"><tspan id="tspan3680" x="-.007" y="21.406" style="font-style:normal;font-variant:normal;font-weight:700;font-stretch:normal;font-size:25.39999962px;font-family:Candara;-inkscape-font-specification:'Candara Bold';fill:#1488c6;fill-opacity:1;stroke-width:.26458332"><tspan style="font-style:normal;font-variant:normal;font-weight:700;font-stretch:normal;font-size:25.39999962px;font-family:Candara;-inkscape-font-specification:'Candara Bold';fill:#e8ae10;fill-opacity:1" id="tspan3686">Tos</tspan>Ker</tspan></text></g></svg>